<?xml version="1.0" encoding="iso-8859-1"?>
<!-- Generator: Adobe Illustrator 19.0.0, SVG Export Plug-In . SVG Version: 6.00 Build 0)  -->
<svg xmlns="http://www.w3.org/2000/svg" xmlns:xlink="http://www.w3.org/1999/xlink" version="1.1" id="Layer_1" x="0px" y="0px" viewBox="0 0 512.001 512.001" style="enable-background:new 0 0 512.001 512.001;" xml:space="preserve" width="512px" height="512px">
<g>
	<g>
		<path d="M503.052,63.623c-9.49-9.491-24.159-11.369-43.599-5.579c-2.679,0.798-5.476,1.746-8.386,2.843    c9.091-24.198,8.071-41.178-2.786-52.037c-19.102-19.102-54.611-2.164-66.28,3.402c-23.322,11.125-52.619,30.056-85.007,54.902    c-61.245-9.104-125.894,9.852-172.94,56.899c-47.048,47.046-66.005,111.694-56.901,172.94    c-24.846,32.387-43.776,61.683-54.901,85.005c-5.567,11.669-22.505,47.18-3.403,66.282c10.859,10.859,27.839,11.877,52.037,2.788    c-1.096,2.91-2.045,5.707-2.843,8.385c-5.789,19.441-3.912,34.11,5.578,43.6c18.137,18.137,53.332,8.855,110.762-29.211    c7.743-5.132,15.732-10.701,23.916-16.657c71.445,25.707,154.573,9.994,211.725-47.159c57.15-57.15,72.859-140.274,47.154-211.719    c5.959-8.186,11.527-16.176,16.662-23.921C511.907,116.954,521.189,81.759,503.052,63.623z M31.396,425.832    c-0.265-3.023,0.188-13.073,11.947-35.992c7.905-15.408,19.391-33.64,33.721-53.623c3.417,9.427,7.547,18.652,12.407,27.583    c0.802-0.544,1.612-1.095,2.433-1.658c43.477-29.806,95.227-74.028,145.718-124.52c50.492-50.492,94.713-102.241,124.519-145.718    c0.563-0.821,1.114-1.631,1.658-2.434c-8.931-4.862-18.156-8.991-27.582-12.407c19.984-14.331,38.216-25.816,53.625-33.721    c22.917-11.758,32.967-12.213,35.99-11.947c0.823,6.427-4.421,29.492-37.838,78.233c-30.863,45.018-76.395,98.346-128.207,150.158    C207.975,311.6,154.649,357.131,109.63,387.994C60.887,421.411,37.822,426.655,31.396,425.832z M442.767,164.401    c-30.863,45.018-76.395,98.346-128.207,150.158c-51.813,51.813-105.139,97.344-150.158,128.208    c-48.931,33.545-71.984,38.7-78.307,37.826c-0.621-4.94,2.386-21.24,22.272-54.269c3.652-2.293,7.394-4.706,11.244-7.258    c2.673-1.772,5.379-3.602,8.108-5.476c3.351,3.182,6.785,6.227,10.294,9.139c2.766-1.816,5.646-3.745,8.666-5.815    c43.477-29.806,95.227-74.028,145.719-124.52c50.492-50.492,94.713-102.241,124.519-145.718c2.071-3.021,4-5.901,5.815-8.667    c-2.912-3.508-5.956-6.943-9.139-10.294c1.872-2.729,3.704-5.435,5.475-8.108c2.552-3.85,4.964-7.593,7.258-11.244    c33.03-19.887,49.33-22.893,54.27-22.272C481.467,92.418,476.311,115.474,442.767,164.401z" fill="#6956c6"/>
	</g>
</g>
<g>
</g>
<g>
</g>
<g>
</g>
<g>
</g>
<g>
</g>
<g>
</g>
<g>
</g>
<g>
</g>
<g>
</g>
<g>
</g>
<g>
</g>
<g>
</g>
<g>
</g>
<g>
</g>
<g>
</g>
</svg>
